<svg width="168" height="41" viewBox="0 0 168 41" fill="none" xmlns="http://www.w3.org/2000/svg">
<g clip-path="url(#clip0_38_2582)">
<path d="M49.2775 28.9525H61.2295V25.3525H53.5255V11.7925H49.2775V28.9525Z" fill="#181818"/>
<path d="M68.3107 26.5525C66.6067 26.5525 65.7187 25.0645 65.7187 22.8325C65.7187 20.6005 66.6067 19.0885 68.3107 19.0885C70.0147 19.0885 70.9267 20.6005 70.9267 22.8325C70.9267 25.0645 70.0147 26.5525 68.3107 26.5525ZM68.3347 29.3365C72.2947 29.3365 74.8867 26.5285 74.8867 22.8325C74.8867 19.1365 72.2947 16.3285 68.3347 16.3285C64.3987 16.3285 61.7587 19.1365 61.7587 22.8325C61.7587 26.5285 64.3987 29.3365 68.3347 29.3365Z" fill="#181818"/>
<path d="M81.7411 33.2005C83.5651 33.2005 85.1731 32.7925 86.2531 31.8325C87.2371 30.9445 87.8851 29.6005 87.8851 27.7525V16.6645H84.1411V17.9845H84.0931C83.3731 16.9525 82.2691 16.3045 80.6371 16.3045C77.5891 16.3045 75.4771 18.8485 75.4771 22.4485C75.4771 26.2165 78.0451 28.2805 80.8051 28.2805C82.2931 28.2805 83.2291 27.6805 83.9491 26.8645H84.0451V28.0885C84.0451 29.5765 83.3491 30.4405 81.6931 30.4405C80.3971 30.4405 79.7491 29.8885 79.5331 29.2405H75.7411C76.1251 31.8085 78.3571 33.2005 81.7411 33.2005ZM81.7171 25.3765C80.2531 25.3765 79.2931 24.1765 79.2931 22.3285C79.2931 20.4565 80.2531 19.2565 81.7171 19.2565C83.3491 19.2565 84.2131 20.6485 84.2131 22.3045C84.2131 24.0325 83.4211 25.3765 81.7171 25.3765Z" fill="#181818"/>
<path d="M95.5835 26.5525C93.8795 26.5525 92.9915 25.0645 92.9915 22.8325C92.9915 20.6005 93.8795 19.0885 95.5835 19.0885C97.2875 19.0885 98.1995 20.6005 98.1995 22.8325C98.1995 25.0645 97.2875 26.5525 95.5835 26.5525ZM95.6075 29.3365C99.5675 29.3365 102.159 26.5285 102.159 22.8325C102.159 19.1365 99.5675 16.3285 95.6075 16.3285C91.6715 16.3285 89.0315 19.1365 89.0315 22.8325C89.0315 26.5285 91.6715 29.3365 95.6075 29.3365Z" fill="#181818"/>
<path d="M103.302 28.9525H107.214V16.6645H103.302V28.9525ZM103.302 14.9605H107.214V11.7925H103.302V14.9605Z" fill="#181818"/>
<path d="M108.911 33.0085H112.823V27.6805H112.871C113.639 28.7125 114.767 29.3365 116.351 29.3365C119.567 29.3365 121.703 26.7925 121.703 22.8085C121.703 19.1125 119.711 16.3045 116.447 16.3045C114.767 16.3045 113.567 17.0485 112.727 18.1525H112.655V16.6645H108.911V33.0085ZM115.343 26.3125C113.663 26.3125 112.703 24.9445 112.703 22.9525C112.703 20.9605 113.567 19.4485 115.271 19.4485C116.951 19.4485 117.743 20.8405 117.743 22.9525C117.743 25.0405 116.831 26.3125 115.343 26.3125Z" fill="#181818"/>
<path d="M128.072 29.3365C131.288 29.3365 133.664 27.9445 133.664 25.2565C133.664 22.1125 131.12 21.5605 128.96 21.2005C127.4 20.9125 126.008 20.7925 126.008 19.9285C126.008 19.1605 126.752 18.8005 127.712 18.8005C128.792 18.8005 129.536 19.1365 129.68 20.2405H133.28C133.088 17.8165 131.216 16.3045 127.736 16.3045C124.832 16.3045 122.432 17.6485 122.432 20.2405C122.432 23.1205 124.712 23.6965 126.848 24.0565C128.48 24.3445 129.968 24.4645 129.968 25.5685C129.968 26.3605 129.224 26.7925 128.048 26.7925C126.752 26.7925 125.936 26.1925 125.792 24.9685H122.096C122.216 27.6805 124.472 29.3365 128.072 29.3365Z" fill="#181818"/>
<path d="M138.978 29.3125C140.682 29.3125 141.762 28.6405 142.65 27.4405H142.722V28.9525H146.466V16.6645H142.554V23.5285C142.554 24.9925 141.738 26.0005 140.394 26.0005C139.146 26.0005 138.546 25.2565 138.546 23.9125V16.6645H134.658V24.7285C134.658 27.4645 136.146 29.3125 138.978 29.3125Z" fill="#181818"/>
<path d="M148.168 28.9525H152.08V22.0645C152.08 20.6005 152.8 19.5685 154.024 19.5685C155.2 19.5685 155.752 20.3365 155.752 21.6565V28.9525H159.664V22.0645C159.664 20.6005 160.36 19.5685 161.608 19.5685C162.784 19.5685 163.336 20.3365 163.336 21.6565V28.9525H167.248V20.9605C167.248 18.2005 165.856 16.3045 163.072 16.3045C161.488 16.3045 160.168 16.9765 159.208 18.4645H159.16C158.536 17.1445 157.312 16.3045 155.704 16.3045C153.928 16.3045 152.752 17.1445 151.984 18.4165H151.912V16.6645H148.168V28.9525Z" fill="#181818"/>
<path d="M25.4099 1.97671L21.4769 0.922852L18.1625 13.2924L15.1702 2.12509L11.2371 3.17895L14.4701 15.2444L6.41746 7.19183L3.53827 10.071L12.371 18.9038L1.37124 15.9564L0.317383 19.8894L12.336 23.1098C12.1984 22.5163 12.1256 21.8979 12.1256 21.2625C12.1256 16.7649 15.7716 13.1189 20.2692 13.1189C24.7668 13.1189 28.4128 16.7649 28.4128 21.2625C28.4128 21.8938 28.3409 22.5084 28.205 23.0984L39.1277 26.0251L40.1815 22.0921L28.1151 18.8589L39.1156 15.9113L38.0617 11.9783L25.9958 15.2113L34.0484 7.15877L31.1692 4.27958L22.459 12.9898L25.4099 1.97671Z" fill="#F97316"/>
<path d="M28.1943 23.1445C27.8571 24.5701 27.1452 25.8508 26.1684 26.8769L34.0814 34.79L36.9606 31.9108L28.1943 23.1445Z" fill="#F97316"/>
<path d="M26.0884 26.9595C25.0998 27.9692 23.8505 28.7227 22.4495 29.111L25.3289 39.857L29.2619 38.8031L26.0884 26.9595Z" fill="#F97316"/>
<path d="M22.3026 29.1503C21.6526 29.3174 20.9713 29.4062 20.2692 29.4062C19.517 29.4062 18.7886 29.3042 18.0971 29.1133L15.2151 39.8691L19.1481 40.9229L22.3026 29.1503Z" fill="#F97316"/>
<path d="M17.9581 29.0739C16.5785 28.6663 15.3514 27.9032 14.383 26.8906L6.45052 34.8231L9.32971 37.7023L17.9581 29.0739Z" fill="#F97316"/>
<path d="M14.3168 26.8205C13.365 25.8015 12.6717 24.5379 12.3417 23.1343L1.38334 26.0706L2.43719 30.0036L14.3168 26.8205Z" fill="#F97316"/>
</g>
<defs>
<clipPath id="clip0_38_2582">
<rect width="168" height="41" fill="white"/>
</clipPath>
</defs>
</svg>
