<svg width="20" height="20" viewBox="0 0 20 20" fill="none" xmlns="http://www.w3.org/2000/svg">
<mask id="path-1-inside-1_81_3388" fill="white">
<path d="M19.0813 4.68772C18.9913 4.63156 18.8885 4.59923 18.7826 4.59376C18.6766 4.5883 18.5711 4.60987 18.4758 4.65647C15.1219 6.29709 12.7266 5.52834 10.1945 4.71741C7.53828 3.86662 4.78438 2.98772 0.979688 4.84553C0.873383 4.89652 0.78367 4.97655 0.720909 5.07636C0.658148 5.17616 0.624898 5.29169 0.625 5.40959V14.7791C0.624985 14.8852 0.651952 14.9895 0.703363 15.0822C0.754774 15.175 0.828938 15.2531 0.918875 15.3093C1.00881 15.3655 1.11157 15.3978 1.21747 15.4034C1.32337 15.4089 1.42893 15.3874 1.52422 15.3408C4.87813 13.7002 7.27344 14.469 9.80937 15.2799C11.3125 15.7604 12.8438 16.2502 14.575 16.2502C15.9102 16.2502 17.3664 15.9596 19.0211 15.1518C19.1262 15.1005 19.2148 15.0207 19.2768 14.9215C19.3388 14.8224 19.3717 14.7078 19.3719 14.5908V5.22131C19.3728 5.11499 19.3466 5.01019 19.2958 4.91682C19.2449 4.82345 19.1711 4.7446 19.0813 4.68772ZM18.125 14.1932C14.9531 15.6127 12.6367 14.8721 10.1906 14.0901C8.6875 13.6096 7.15625 13.1198 5.425 13.1198C4.20867 13.1257 3.00472 13.3643 1.87813 13.8229V5.80725C5.05 4.38772 7.36641 5.12834 9.8125 5.91038C12.2586 6.69241 14.7766 7.50022 18.125 6.17912V14.1932ZM10 7.50022C9.50555 7.50022 9.0222 7.64684 8.61107 7.92155C8.19995 8.19625 7.87952 8.5867 7.6903 9.04351C7.50108 9.50033 7.45157 10.003 7.54804 10.4879C7.6445 10.9729 7.8826 11.4184 8.23223 11.768C8.58186 12.1176 9.02732 12.3557 9.51227 12.4522C9.99723 12.5486 10.4999 12.4991 10.9567 12.3099C11.4135 12.1207 11.804 11.8003 12.0787 11.3891C12.3534 10.978 12.5 10.4947 12.5 10.0002C12.5 9.33718 12.2366 8.70129 11.7678 8.23245C11.2989 7.76361 10.663 7.50022 10 7.50022ZM10 11.2502C9.75277 11.2502 9.5111 11.1769 9.30554 11.0396C9.09998 10.9022 8.93976 10.707 8.84515 10.4786C8.75054 10.2502 8.72579 9.99883 8.77402 9.75636C8.82225 9.51388 8.9413 9.29115 9.11612 9.11634C9.29093 8.94152 9.51366 8.82247 9.75614 8.77424C9.99861 8.72601 10.2499 8.75076 10.4784 8.84537C10.7068 8.93998 10.902 9.10019 11.0393 9.30576C11.1767 9.51132 11.25 9.75299 11.25 10.0002C11.25 10.3317 11.1183 10.6497 10.8839 10.8841C10.6495 11.1185 10.3315 11.2502 10 11.2502ZM4.375 7.50022V11.2502C4.375 11.416 4.30915 11.575 4.19194 11.6922C4.07473 11.8094 3.91576 11.8752 3.75 11.8752C3.58424 11.8752 3.42527 11.8094 3.30806 11.6922C3.19085 11.575 3.125 11.416 3.125 11.2502V7.50022C3.125 7.33446 3.19085 7.17549 3.30806 7.05828C3.42527 6.94107 3.58424 6.87522 3.75 6.87522C3.91576 6.87522 4.07473 6.94107 4.19194 7.05828C4.30915 7.17549 4.375 7.33446 4.375 7.50022ZM15.625 12.5002V8.75022C15.625 8.58446 15.6908 8.42549 15.8081 8.30828C15.9253 8.19107 16.0842 8.12522 16.25 8.12522C16.4158 8.12522 16.5747 8.19107 16.6919 8.30828C16.8092 8.42549 16.875 8.58446 16.875 8.75022V12.5002C16.875 12.666 16.8092 12.825 16.6919 12.9422C16.5747 13.0594 16.4158 13.1252 16.25 13.1252C16.0842 13.1252 15.9253 13.0594 15.8081 12.9422C15.6908 12.825 15.625 12.666 15.625 12.5002Z"/>
</mask>
<path d="M19.0813 4.68772C18.9913 4.63156 18.8885 4.59923 18.7826 4.59376C18.6766 4.5883 18.5711 4.60987 18.4758 4.65647C15.1219 6.29709 12.7266 5.52834 10.1945 4.71741C7.53828 3.86662 4.78438 2.98772 0.979688 4.84553C0.873383 4.89652 0.78367 4.97655 0.720909 5.07636C0.658148 5.17616 0.624898 5.29169 0.625 5.40959V14.7791C0.624985 14.8852 0.651952 14.9895 0.703363 15.0822C0.754774 15.175 0.828938 15.2531 0.918875 15.3093C1.00881 15.3655 1.11157 15.3978 1.21747 15.4034C1.32337 15.4089 1.42893 15.3874 1.52422 15.3408C4.87813 13.7002 7.27344 14.469 9.80937 15.2799C11.3125 15.7604 12.8438 16.2502 14.575 16.2502C15.9102 16.2502 17.3664 15.9596 19.0211 15.1518C19.1262 15.1005 19.2148 15.0207 19.2768 14.9215C19.3388 14.8224 19.3717 14.7078 19.3719 14.5908V5.22131C19.3728 5.11499 19.3466 5.01019 19.2958 4.91682C19.2449 4.82345 19.1711 4.7446 19.0813 4.68772ZM18.125 14.1932C14.9531 15.6127 12.6367 14.8721 10.1906 14.0901C8.6875 13.6096 7.15625 13.1198 5.425 13.1198C4.20867 13.1257 3.00472 13.3643 1.87813 13.8229V5.80725C5.05 4.38772 7.36641 5.12834 9.8125 5.91038C12.2586 6.69241 14.7766 7.50022 18.125 6.17912V14.1932ZM10 7.50022C9.50555 7.50022 9.0222 7.64684 8.61107 7.92155C8.19995 8.19625 7.87952 8.5867 7.6903 9.04351C7.50108 9.50033 7.45157 10.003 7.54804 10.4879C7.6445 10.9729 7.8826 11.4184 8.23223 11.768C8.58186 12.1176 9.02732 12.3557 9.51227 12.4522C9.99723 12.5486 10.4999 12.4991 10.9567 12.3099C11.4135 12.1207 11.804 11.8003 12.0787 11.3891C12.3534 10.978 12.5 10.4947 12.5 10.0002C12.5 9.33718 12.2366 8.70129 11.7678 8.23245C11.2989 7.76361 10.663 7.50022 10 7.50022ZM10 11.2502C9.75277 11.2502 9.5111 11.1769 9.30554 11.0396C9.09998 10.9022 8.93976 10.707 8.84515 10.4786C8.75054 10.2502 8.72579 9.99883 8.77402 9.75636C8.82225 9.51388 8.9413 9.29115 9.11612 9.11634C9.29093 8.94152 9.51366 8.82247 9.75614 8.77424C9.99861 8.72601 10.2499 8.75076 10.4784 8.84537C10.7068 8.93998 10.902 9.10019 11.0393 9.30576C11.1767 9.51132 11.25 9.75299 11.25 10.0002C11.25 10.3317 11.1183 10.6497 10.8839 10.8841C10.6495 11.1185 10.3315 11.2502 10 11.2502ZM4.375 7.50022V11.2502C4.375 11.416 4.30915 11.575 4.19194 11.6922C4.07473 11.8094 3.91576 11.8752 3.75 11.8752C3.58424 11.8752 3.42527 11.8094 3.30806 11.6922C3.19085 11.575 3.125 11.416 3.125 11.2502V7.50022C3.125 7.33446 3.19085 7.17549 3.30806 7.05828C3.42527 6.94107 3.58424 6.87522 3.75 6.87522C3.91576 6.87522 4.07473 6.94107 4.19194 7.05828C4.30915 7.17549 4.375 7.33446 4.375 7.50022ZM15.625 12.5002V8.75022C15.625 8.58446 15.6908 8.42549 15.8081 8.30828C15.9253 8.19107 16.0842 8.12522 16.25 8.12522C16.4158 8.12522 16.5747 8.19107 16.6919 8.30828C16.8092 8.42549 16.875 8.58446 16.875 8.75022V12.5002C16.875 12.666 16.8092 12.825 16.6919 12.9422C16.5747 13.0594 16.4158 13.1252 16.25 13.1252C16.0842 13.1252 15.9253 13.0594 15.8081 12.9422C15.6908 12.825 15.625 12.666 15.625 12.5002Z" fill="#F97316"/>
<path d="M19.0813 4.68772L19.8837 3.42038L19.8754 3.41521L19.0813 4.68772ZM18.4758 4.65647L17.8168 3.30896L17.8167 3.30904L18.4758 4.65647ZM10.1945 4.71741L9.73699 6.14592L9.73702 6.14593L10.1945 4.71741ZM0.979688 4.84553L1.62845 6.19802L1.63786 6.19342L0.979688 4.84553ZM0.625 5.40959H2.125L2.125 5.40829L0.625 5.40959ZM0.625 14.7791L2.125 14.7793V14.7791H0.625ZM1.52422 15.3408L2.18234 16.6888L2.18334 16.6883L1.52422 15.3408ZM9.80937 15.2799L9.3525 16.7086L9.35267 16.7087L9.80937 15.2799ZM19.0211 15.1518L19.6792 16.4997L19.6792 16.4997L19.0211 15.1518ZM19.3719 14.5908L20.8719 14.5925V14.5908H19.3719ZM19.3719 5.22131L17.8719 5.208V5.22131H19.3719ZM18.125 14.1932L18.7377 15.5623L19.625 15.1652V14.1932H18.125ZM10.1906 14.0901L10.6474 12.6613L10.6473 12.6613L10.1906 14.0901ZM5.425 13.1198V11.6197L5.41771 11.6198L5.425 13.1198ZM1.87813 13.8229H0.378125V16.0529L2.44361 15.2122L1.87813 13.8229ZM1.87813 5.80725L1.26538 4.43811L0.378125 4.83519V5.80725H1.87813ZM18.125 6.17912H19.625V3.97479L17.5745 4.7838L18.125 6.17912ZM10 7.50022V6.00022V7.50022ZM4.375 7.50022H2.875H4.375ZM4.19194 11.6922L5.2526 12.7528L4.19194 11.6922ZM3.30806 11.6922L2.2474 12.7528L3.30806 11.6922ZM19.0813 4.68772L19.8754 3.41521C19.5695 3.22428 19.22 3.11434 18.8599 3.09576L18.7826 4.59376L18.7052 6.09177C18.5569 6.08411 18.413 6.03885 18.2871 5.96023L19.0813 4.68772ZM18.7826 4.59376L18.8599 3.09576C18.4997 3.07717 18.1408 3.15054 17.8168 3.30896L18.4758 4.65647L19.1347 6.00398C19.0013 6.06921 18.8535 6.09942 18.7052 6.09177L18.7826 4.59376ZM18.4758 4.65647L17.8167 3.30904C16.3724 4.01555 15.1962 4.1805 14.1262 4.10956C13.0046 4.0352 11.9457 3.70319 10.652 3.28888L10.1945 4.71741L9.73702 6.14593C10.9754 6.54256 12.3802 7.00039 13.9277 7.10299C15.5268 7.209 17.2253 6.93801 19.1349 6.0039L18.4758 4.65647ZM10.1945 4.71741L10.6521 3.28889C7.9496 2.4233 4.69036 1.36435 0.321518 3.49764L0.979688 4.84553L1.63786 6.19342C4.8784 4.61108 7.12697 5.30995 9.73699 6.14592L10.1945 4.71741ZM0.979688 4.84553L0.330938 3.49308C-0.0304976 3.66646 -0.335522 3.93853 -0.54891 4.27788L0.720909 5.07636L1.99073 5.87483C1.90286 6.01456 1.77726 6.12659 1.62844 6.19798L0.979688 4.84553ZM0.720909 5.07636L-0.54891 4.27788C-0.762298 4.61723 -0.875346 5.01002 -0.874999 5.41089L0.625 5.40959L2.125 5.40829C2.12514 5.57336 2.07859 5.7351 1.99073 5.87483L0.720909 5.07636ZM0.625 5.40959H-0.875V14.7791H0.625H2.125V5.40959H0.625ZM0.625 14.7791L-0.875 14.7789C-0.875051 15.1395 -0.783364 15.4941 -0.608567 15.8094L0.703363 15.0822L2.01529 14.355C2.08727 14.4849 2.12502 14.6309 2.125 14.7793L0.625 14.7791ZM0.703363 15.0822L-0.608567 15.8094C-0.433768 16.1248 -0.181608 16.3905 0.124175 16.5815L0.918875 15.3093L1.71358 14.0371C1.83948 14.1158 1.94331 14.2252 2.01529 14.355L0.703363 15.0822ZM0.918875 15.3093L0.124175 16.5815C0.42996 16.7725 0.779322 16.8826 1.13938 16.9013L1.21747 15.4034L1.29555 13.9054C1.44381 13.9131 1.58767 13.9585 1.71358 14.0371L0.918875 15.3093ZM1.21747 15.4034L1.13938 16.9013C1.49944 16.9201 1.85835 16.8469 2.18234 16.6888L1.52422 15.3408L0.866094 13.9929C0.999504 13.9278 1.14729 13.8977 1.29555 13.9054L1.21747 15.4034ZM1.52422 15.3408L2.18334 16.6883C3.6276 15.9818 4.80374 15.8168 5.87435 15.8878C6.99666 15.9621 8.05659 16.2942 9.3525 16.7086L9.80937 15.2799L10.2663 13.8512C9.02623 13.4546 7.62053 12.9969 6.07273 12.8943C4.47321 12.7883 2.77474 13.0593 0.8651 13.9934L1.52422 15.3408ZM9.80937 15.2799L9.35267 16.7087C10.8294 17.1807 12.5755 17.7502 14.575 17.7502V16.2502V14.7502C13.112 14.7502 11.7956 14.34 10.2661 13.8511L9.80937 15.2799ZM14.575 16.2502V17.7502C16.1465 17.7502 17.8271 17.4039 19.6792 16.4997L19.0211 15.1518L18.363 13.8038C16.9057 14.5153 15.6738 14.7502 14.575 14.7502V16.2502ZM19.0211 15.1518L19.6792 16.4997C20.0365 16.3252 20.3378 16.054 20.5486 15.7169L19.2768 14.9215L18.005 14.1262C18.0918 13.9874 18.2158 13.8757 18.363 13.8039L19.0211 15.1518ZM19.2768 14.9215L20.5486 15.7169C20.7594 15.3797 20.8714 14.9902 20.8719 14.5925L19.3719 14.5908L17.8719 14.5892C17.8721 14.4254 17.9182 14.265 18.005 14.1262L19.2768 14.9215ZM19.3719 14.5908H20.8719V5.22131H19.3719H17.8719V14.5908H19.3719ZM19.3719 5.22131L20.8718 5.23462C20.875 4.87314 20.786 4.51681 20.6131 4.19935L19.2958 4.91682L17.9785 5.63429C17.9073 5.50357 17.8706 5.35685 17.8719 5.208L19.3719 5.22131ZM19.2958 4.91682L20.6131 4.19935C20.4401 3.88189 20.1891 3.61379 19.8837 3.4204L19.0813 4.68772L18.2788 5.95503C18.153 5.8754 18.0497 5.76501 17.9785 5.63429L19.2958 4.91682ZM18.125 14.1932L17.5123 12.824C14.8974 13.9943 13.0726 13.4366 10.6474 12.6613L10.1906 14.0901L9.73384 15.5188C12.2009 16.3076 15.0088 17.2311 18.7377 15.5623L18.125 14.1932ZM10.1906 14.0901L10.6473 12.6613C9.17059 12.1892 7.42449 11.6198 5.425 11.6198V13.1198V14.6198C6.88801 14.6198 8.20441 15.0299 9.73392 15.5188L10.1906 14.0901ZM5.425 13.1198L5.41771 11.6198C4.00997 11.6266 2.61654 11.9028 1.31264 12.4335L1.87813 13.8229L2.44361 15.2122C3.3929 14.8258 4.40738 14.6247 5.43229 14.6197L5.425 13.1198ZM1.87813 13.8229H3.37813V5.80725H1.87813H0.378125V13.8229H1.87813ZM1.87813 5.80725L2.49087 7.17639C5.10572 6.00615 6.93057 6.5638 9.35572 7.33913L9.8125 5.91038L10.2693 4.48162C7.80224 3.69289 4.99428 2.76929 1.26538 4.43811L1.87813 5.80725ZM9.8125 5.91038L9.35572 7.33913C11.8152 8.12543 14.7931 9.10622 18.6755 7.57445L18.125 6.17912L17.5745 4.7838C14.76 5.89422 12.702 5.25938 10.2693 4.48162L9.8125 5.91038ZM18.125 6.17912H16.625V14.1932H18.125H19.625V6.17912H18.125ZM10 7.50022V6.00022C9.20887 6.00022 8.43552 6.23482 7.77772 6.67434L8.61107 7.92155L9.44443 9.16875C9.60888 9.05887 9.80222 9.00022 10 9.00022V7.50022ZM8.61107 7.92155L7.77772 6.67434C7.11992 7.11387 6.60723 7.73858 6.30448 8.46949L7.6903 9.04351L9.07612 9.61754C9.15181 9.43481 9.27998 9.27863 9.44443 9.16875L8.61107 7.92155ZM7.6903 9.04351L6.30448 8.46949C6.00173 9.20039 5.92252 10.0047 6.07686 10.7806L7.54804 10.4879L9.01921 10.1953C8.98063 10.0013 9.00043 9.80026 9.07612 9.61754L7.6903 9.04351ZM7.54804 10.4879L6.07686 10.7806C6.2312 11.5565 6.61216 12.2692 7.17157 12.8286L8.23223 11.768L9.29289 10.7073C9.15304 10.5675 9.0578 10.3893 9.01921 10.1953L7.54804 10.4879ZM8.23223 11.768L7.17157 12.8286C7.73098 13.3881 8.44371 13.769 9.21964 13.9234L9.51227 12.4522L9.80491 10.981C9.61093 10.9424 9.43275 10.8472 9.29289 10.7073L8.23223 11.768ZM9.51227 12.4522L9.21964 13.9234C9.99556 14.0777 10.7998 13.9985 11.5307 13.6957L10.9567 12.3099L10.3827 10.9241C10.2 10.9998 9.99889 11.0196 9.80491 10.981L9.51227 12.4522ZM10.9567 12.3099L11.5307 13.6957C12.2616 13.393 12.8864 12.8803 13.3259 12.2225L12.0787 11.3891L10.8315 10.5558C10.7216 10.7202 10.5654 10.8484 10.3827 10.9241L10.9567 12.3099ZM12.0787 11.3891L13.3259 12.2225C13.7654 11.5647 14 10.7913 14 10.0002H12.5H11C11 10.198 10.9414 10.3913 10.8315 10.5558L12.0787 11.3891ZM12.5 10.0002H14C14 8.93935 13.5786 7.92194 12.8284 7.17179L11.7678 8.23245L10.7071 9.29311C10.8946 9.48065 11 9.735 11 10.0002H12.5ZM11.7678 8.23245L12.8284 7.17179C12.0783 6.42165 11.0609 6.00022 10 6.00022V7.50022V9.00022C10.2652 9.00022 10.5196 9.10558 10.7071 9.29311L11.7678 8.23245ZM10 11.2502V9.75022C10.0494 9.75022 10.0978 9.76488 10.1389 9.79235L9.30554 11.0396L8.47218 12.2868C8.92442 12.5889 9.4561 12.7502 10 12.7502V11.2502ZM9.30554 11.0396L10.1389 9.79235C10.18 9.81982 10.212 9.85887 10.231 9.90455L8.84515 10.4786L7.45933 11.0526C7.66747 11.5551 8.01995 11.9846 8.47218 12.2868L9.30554 11.0396ZM8.84515 10.4786L10.231 9.90455C10.2499 9.95023 10.2548 10.0005 10.2452 10.049L8.77402 9.75636L7.30284 9.46372C7.19673 9.99717 7.25119 10.5501 7.45933 11.0526L8.84515 10.4786ZM8.77402 9.75636L10.2452 10.049C10.2355 10.0975 10.2117 10.142 10.1768 10.177L9.11612 9.11634L8.05546 8.05568C7.67086 8.44027 7.40895 8.93027 7.30284 9.46372L8.77402 9.75636ZM9.11612 9.11634L10.1768 10.177C10.1418 10.212 10.0973 10.2358 10.0488 10.2454L9.75614 8.77424L9.4635 7.30306C8.93005 7.40917 8.44005 7.67108 8.05546 8.05568L9.11612 9.11634ZM9.75614 8.77424L10.0488 10.2454C10.0003 10.2551 9.95001 10.2501 9.90433 10.2312L10.4784 8.84537L11.0524 7.45955C10.5499 7.25141 9.99695 7.19695 9.4635 7.30306L9.75614 8.77424ZM10.4784 8.84537L9.90433 10.2312C9.85865 10.2123 9.8196 10.1802 9.79213 10.1391L11.0393 9.30576L12.2865 8.4724C11.9844 8.02017 11.5549 7.66769 11.0524 7.45955L10.4784 8.84537ZM11.0393 9.30576L9.79213 10.1391C9.76466 10.098 9.75 10.0497 9.75 10.0002H11.25H12.75C12.75 9.45632 12.5887 8.92464 12.2865 8.4724L11.0393 9.30576ZM11.25 10.0002H9.75C9.75 9.93391 9.77634 9.87033 9.82322 9.82344L10.8839 10.8841L11.9445 11.9448C12.4603 11.429 12.75 10.7296 12.75 10.0002H11.25ZM10.8839 10.8841L9.82322 9.82344C9.87011 9.77656 9.93369 9.75022 10 9.75022V11.2502V12.7502C10.7293 12.7502 11.4288 12.4605 11.9445 11.9448L10.8839 10.8841ZM4.375 7.50022H2.875V11.2502H4.375H5.875V7.50022H4.375ZM4.375 11.2502H2.875C2.875 11.0182 2.96719 10.7956 3.13128 10.6315L4.19194 11.6922L5.2526 12.7528C5.65112 12.3543 5.875 11.8138 5.875 11.2502H4.375ZM4.19194 11.6922L3.13128 10.6315C3.29538 10.4674 3.51794 10.3752 3.75 10.3752V11.8752V13.3752C4.31358 13.3752 4.85409 13.1513 5.2526 12.7528L4.19194 11.6922ZM3.75 11.8752V10.3752C3.98206 10.3752 4.20462 10.4674 4.36872 10.6315L3.30806 11.6922L2.2474 12.7528C2.64592 13.1513 3.18642 13.3752 3.75 13.3752V11.8752ZM3.30806 11.6922L4.36872 10.6315C4.53281 10.7956 4.625 11.0182 4.625 11.2502H3.125H1.625C1.625 11.8138 1.84888 12.3543 2.2474 12.7528L3.30806 11.6922ZM3.125 11.2502H4.625V7.50022H3.125H1.625V11.2502H3.125ZM3.125 7.50022H4.625C4.625 7.73228 4.53281 7.95484 4.36872 8.11894L3.30806 7.05828L2.2474 5.99762C1.84888 6.39613 1.625 6.93663 1.625 7.50022H3.125ZM3.30806 7.05828L4.36872 8.11894C4.20463 8.28303 3.98207 8.37522 3.75 8.37522V6.87522V5.37522C3.18641 5.37522 2.64591 5.5991 2.2474 5.99762L3.30806 7.05828ZM3.75 6.87522V8.37522C3.51793 8.37522 3.29538 8.28303 3.13128 8.11894L4.19194 7.05828L5.2526 5.99762C4.85409 5.5991 4.31359 5.37522 3.75 5.37522V6.87522ZM4.19194 7.05828L3.13128 8.11894C2.96719 7.95484 2.875 7.73228 2.875 7.50022H4.375H5.875C5.875 6.93663 5.65112 6.39613 5.2526 5.99762L4.19194 7.05828ZM15.625 12.5002H17.125V8.75022H15.625H14.125V12.5002H15.625ZM15.625 8.75022H17.125C17.125 8.98228 17.0328 9.20484 16.8687 9.36894L15.8081 8.30828L14.7474 7.24762C14.3489 7.64613 14.125 8.18664 14.125 8.75022H15.625ZM15.8081 8.30828L16.8687 9.36894C16.7046 9.53303 16.4821 9.62522 16.25 9.62522V8.12522V6.62522C15.6864 6.62522 15.1459 6.8491 14.7474 7.24762L15.8081 8.30828ZM16.25 8.12522V9.62522C16.0179 9.62522 15.7954 9.53303 15.6313 9.36894L16.6919 8.30828L17.7526 7.24762C17.3541 6.8491 16.8136 6.62522 16.25 6.62522V8.12522ZM16.6919 8.30828L15.6313 9.36894C15.4672 9.20484 15.375 8.98228 15.375 8.75022H16.875H18.375C18.375 8.18664 18.1511 7.64613 17.7526 7.24762L16.6919 8.30828ZM16.875 8.75022H15.375V12.5002H16.875H18.375V8.75022H16.875ZM16.875 12.5002H15.375C15.375 12.2682 15.4672 12.0456 15.6313 11.8815L16.6919 12.9422L17.7526 14.0028C18.1511 13.6043 18.375 13.0638 18.375 12.5002H16.875ZM16.6919 12.9422L15.6313 11.8815C15.7954 11.7174 16.0179 11.6252 16.25 11.6252V13.1252V14.6252C16.8136 14.6252 17.3541 14.4013 17.7526 14.0028L16.6919 12.9422ZM16.25 13.1252V11.6252C16.4821 11.6252 16.7046 11.7174 16.8687 11.8815L15.8081 12.9422L14.7474 14.0028C15.1459 14.4013 15.6864 14.6252 16.25 14.6252V13.1252ZM15.8081 12.9422L16.8687 11.8815C17.0328 12.0456 17.125 12.2682 17.125 12.5002H15.625H14.125C14.125 13.0638 14.3489 13.6043 14.7474 14.0028L15.8081 12.9422Z" fill="#F97316" mask="url(#path-1-inside-1_81_3388)"/>
</svg>
