<svg width="24" height="24" viewBox="0 0 24 24" fill="none" xmlns="http://www.w3.org/2000/svg">
<path d="M12 16.9219C12.3854 16.9219 12.7548 17.0751 13.0273 17.3477C13.2999 17.6202 13.4531 17.9896 13.4531 18.375C13.4531 18.6265 13.3879 18.873 13.2646 19.0908L13.208 19.1826C13.0682 19.3917 12.8769 19.5603 12.6533 19.6729L12.5557 19.7178C12.3233 19.8139 12.0706 19.848 11.8223 19.8174L11.7168 19.7998C11.4349 19.7437 11.1759 19.6056 10.9727 19.4023C10.7948 19.2244 10.6664 19.004 10.5996 18.7627L10.5752 18.6582C10.5262 18.4117 10.5418 18.1575 10.6201 17.9199L10.6572 17.8193C10.7535 17.587 10.9082 17.3835 11.1055 17.2295L11.1924 17.167C11.4313 17.0073 11.7126 16.9219 12 16.9219ZM12 10.5469C12.3372 10.5469 12.6623 10.6641 12.9209 10.876L13.0273 10.9727C13.2999 11.2452 13.4531 11.6146 13.4531 12C13.4531 12.2874 13.3677 12.5687 13.208 12.8076C13.0682 13.0167 12.8769 13.1853 12.6533 13.2979L12.5557 13.3428C12.3233 13.4389 12.0706 13.473 11.8223 13.4424L11.7168 13.4248C11.4349 13.3687 11.1759 13.2306 10.9727 13.0273C10.7948 12.8494 10.6664 12.629 10.5996 12.3877L10.5752 12.2832C10.5262 12.0367 10.5418 11.7825 10.6201 11.5449L10.6572 11.4443C10.7535 11.212 10.9082 11.0085 11.1055 10.8545L11.1924 10.792C11.4313 10.6323 11.7126 10.5469 12 10.5469ZM11.4443 4.28223C11.6767 4.18609 11.9294 4.15201 12.1777 4.18262L12.2832 4.2002C12.5651 4.25626 12.8241 4.39443 13.0273 4.59766C13.2306 4.80088 13.3687 5.05992 13.4248 5.3418C13.4738 5.5883 13.4582 5.84255 13.3799 6.08008L13.3428 6.18066C13.2465 6.41302 13.0918 6.61647 12.8945 6.77051L12.8076 6.83301C12.5687 6.99268 12.2874 7.07812 12 7.07812C11.6146 7.07812 11.2452 6.92486 10.9727 6.65234C10.7001 6.37983 10.5469 6.01039 10.5469 5.625C10.5469 5.37353 10.6121 5.12697 10.7354 4.90918L10.792 4.81738C10.9318 4.6083 11.1231 4.43969 11.3467 4.32715L11.4443 4.28223Z" fill="#475569" stroke="#475569" stroke-width="0.09375"/>
</svg>
