<svg width="16" height="16" viewBox="0 0 16 16" fill="none" xmlns="http://www.w3.org/2000/svg">
<mask id="path-1-inside-1_81_3312" fill="white">
<path d="M14.2069 4.58561L11.4144 1.79249C11.3215 1.6996 11.2113 1.62592 11.0899 1.57565C10.9686 1.52539 10.8385 1.49951 10.7072 1.49951C10.5759 1.49951 10.4458 1.52539 10.3245 1.57565C10.2031 1.62592 10.0929 1.6996 10 1.79249L2.29313 9.49998C2.19987 9.59251 2.12593 9.70265 2.0756 9.824C2.02528 9.94535 1.99959 10.0755 2.00001 10.2069V13C2.00001 13.2652 2.10536 13.5196 2.2929 13.7071C2.48043 13.8946 2.73479 14 3.00001 14H5.79313C5.9245 14.0004 6.05464 13.9747 6.17599 13.9244C6.29735 13.8741 6.40748 13.8001 6.50001 13.7069L14.2069 5.99999C14.2998 5.90712 14.3734 5.79687 14.4237 5.67553C14.474 5.55419 14.4999 5.42414 14.4999 5.2928C14.4999 5.16146 14.474 5.0314 14.4237 4.91006C14.3734 4.78872 14.2998 4.67847 14.2069 4.58561ZM5.79313 13H3.00001V10.2069L8.50001 4.70686L11.2931 7.49999L5.79313 13ZM12 6.79249L9.20688 3.99999L10.7069 2.49999L13.5 5.29249L12 6.79249Z"/>
</mask>
<path d="M14.2069 4.58561L11.4144 1.79249C11.3215 1.6996 11.2113 1.62592 11.0899 1.57565C10.9686 1.52539 10.8385 1.49951 10.7072 1.49951C10.5759 1.49951 10.4458 1.52539 10.3245 1.57565C10.2031 1.62592 10.0929 1.6996 10 1.79249L2.29313 9.49998C2.19987 9.59251 2.12593 9.70265 2.0756 9.824C2.02528 9.94535 1.99959 10.0755 2.00001 10.2069V13C2.00001 13.2652 2.10536 13.5196 2.2929 13.7071C2.48043 13.8946 2.73479 14 3.00001 14H5.79313C5.9245 14.0004 6.05464 13.9747 6.17599 13.9244C6.29735 13.8741 6.40748 13.8001 6.50001 13.7069L14.2069 5.99999C14.2998 5.90712 14.3734 5.79687 14.4237 5.67553C14.474 5.55419 14.4999 5.42414 14.4999 5.2928C14.4999 5.16146 14.474 5.0314 14.4237 4.91006C14.3734 4.78872 14.2998 4.67847 14.2069 4.58561ZM5.79313 13H3.00001V10.2069L8.50001 4.70686L11.2931 7.49999L5.79313 13ZM12 6.79249L9.20688 3.99999L10.7069 2.49999L13.5 5.29249L12 6.79249Z" fill="#1E293B"/>
<path d="M14.2069 4.58561L13.1461 5.64615L13.1463 5.64639L14.2069 4.58561ZM11.4144 1.79249L10.3536 2.85302L10.3536 2.85303L11.4144 1.79249ZM10.7072 1.49951V-0.000488281V1.49951ZM10 1.79249L11.0607 2.8531L11.0608 2.85302L10 1.79249ZM2.29313 9.49998L3.34956 10.5649L3.35383 10.5606L2.29313 9.49998ZM2.00001 10.2069H3.50001L3.5 10.2021L2.00001 10.2069ZM2.00001 13H0.500005H2.00001ZM5.79313 14L5.79792 12.5H5.79313V14ZM6.50001 13.7069L5.43934 12.6462L5.43513 12.6504L6.50001 13.7069ZM14.2069 5.99999L13.1463 4.9392L13.1462 4.93933L14.2069 5.99999ZM14.4999 5.2928H12.9999H14.4999ZM5.79313 13V14.5H6.41445L6.85379 14.0606L5.79313 13ZM3.00001 13H1.50001V14.5H3.00001V13ZM3.00001 10.2069L1.93934 9.1462L1.50001 9.58554V10.2069H3.00001ZM8.50001 4.70686L9.56067 3.6462L8.50001 2.58554L7.43935 3.6462L8.50001 4.70686ZM11.2931 7.49999L12.3538 8.56065L13.4145 7.49999L12.3538 6.43933L11.2931 7.49999ZM12 6.79249L10.9395 7.85326L12.0001 8.91369L13.0607 7.85315L12 6.79249ZM9.20688 3.99999L8.14622 2.93933L7.08544 4.0001L8.14634 5.06076L9.20688 3.99999ZM10.7069 2.49999L11.7674 1.43921L10.7068 0.378784L9.64622 1.43933L10.7069 2.49999ZM13.5 5.29249L14.5607 6.35315L15.6214 5.29237L14.5605 4.23171L13.5 5.29249ZM14.2069 4.58561L15.2677 3.52507L12.4752 0.731944L11.4144 1.79249L10.3536 2.85303L13.1461 5.64615L14.2069 4.58561ZM11.4144 1.79249L12.4752 0.731947C12.243 0.49974 11.9674 0.31554 11.664 0.189867L11.0899 1.57565L10.5158 2.96144C10.4552 2.93631 10.4 2.89947 10.3536 2.85302L11.4144 1.79249ZM11.0899 1.57565L11.664 0.189867C11.3607 0.064195 11.0355 -0.000488281 10.7072 -0.000488281V1.49951V2.99951C10.6415 2.99951 10.5765 2.98658 10.5158 2.96144L11.0899 1.57565ZM10.7072 1.49951V-0.000488281C10.3788 -0.000488281 10.0537 0.064195 9.75035 0.189867L10.3245 1.57565L10.8986 2.96144C10.8379 2.98658 10.7729 2.99951 10.7072 2.99951V1.49951ZM10.3245 1.57565L9.75035 0.189867C9.447 0.31554 9.17138 0.49974 8.93922 0.731947L10 1.79249L11.0608 2.85302C11.0144 2.89947 10.9592 2.93631 10.8986 2.96144L10.3245 1.57565ZM10 1.79249L8.9393 0.731869L1.23243 8.43937L2.29313 9.49998L3.35383 10.5606L11.0607 2.8531L10 1.79249ZM2.29313 9.49998L1.23671 8.43511C1.00231 8.66764 0.816482 8.94444 0.690012 9.24942L2.0756 9.824L3.4612 10.3986C3.43537 10.4609 3.39742 10.5174 3.34955 10.5649L2.29313 9.49998ZM2.0756 9.824L0.690012 9.24942C0.563542 9.55441 0.498958 9.88149 0.500013 10.2117L2.00001 10.2069L3.5 10.2021C3.50021 10.2695 3.48702 10.3363 3.4612 10.3986L2.0756 9.824ZM2.00001 10.2069H0.500005V13H2.00001H3.50001V10.2069H2.00001ZM2.00001 13H0.500005C0.500005 13.663 0.763397 14.2989 1.23224 14.7678L2.2929 13.7071L3.35356 12.6464C3.44733 12.7402 3.50001 12.8674 3.50001 13H2.00001ZM2.2929 13.7071L1.23224 14.7678C1.70108 15.2366 2.33696 15.5 3.00001 15.5V14V12.5C3.13261 12.5 3.25979 12.5527 3.35356 12.6464L2.2929 13.7071ZM3.00001 14V15.5H5.79313V14V12.5H3.00001V14ZM5.79313 14L5.78834 15.5C6.1185 15.501 6.44558 15.4364 6.75057 15.31L6.17599 13.9244L5.60142 12.5388C5.6637 12.513 5.7305 12.4998 5.79792 12.5L5.79313 14ZM6.17599 13.9244L6.75057 15.31C7.05555 15.1835 7.33235 14.9977 7.56489 14.7633L6.50001 13.7069L5.43513 12.6504C5.48261 12.6026 5.53914 12.5646 5.60142 12.5388L6.17599 13.9244ZM6.50001 13.7069L7.56067 14.7675L15.2675 7.06065L14.2069 5.99999L13.1462 4.93933L5.43935 12.6462L6.50001 13.7069ZM14.2069 5.99999L15.2674 7.06077C15.4996 6.82861 15.6838 6.55299 15.8095 6.24964L14.4237 5.67553L13.0379 5.10143C13.0631 5.04076 13.0999 4.98563 13.1463 4.9392L14.2069 5.99999ZM14.4237 5.67553L15.8095 6.24964C15.9352 5.94629 15.9999 5.62115 15.9999 5.2928H14.4999H12.9999C12.9999 5.22713 13.0128 5.1621 13.0379 5.10143L14.4237 5.67553ZM14.4999 5.2928H15.9999C15.9999 4.96445 15.9352 4.63931 15.8095 4.33596L14.4237 4.91006L13.0379 5.48417C13.0128 5.4235 12.9999 5.35847 12.9999 5.2928H14.4999ZM14.4237 4.91006L15.8095 4.33596C15.6838 4.0326 15.4996 3.75698 15.2674 3.52483L14.2069 4.58561L13.1463 5.64639C13.0999 5.59996 13.0631 5.54484 13.0379 5.48417L14.4237 4.91006ZM5.79313 13V11.5H3.00001V13V14.5H5.79313V13ZM3.00001 13H4.50001V10.2069H3.00001H1.50001V13H3.00001ZM3.00001 10.2069L4.06067 11.2675L9.56067 5.76752L8.50001 4.70686L7.43935 3.6462L1.93934 9.1462L3.00001 10.2069ZM8.50001 4.70686L7.43934 5.76752L10.2325 8.56065L11.2931 7.49999L12.3538 6.43933L9.56067 3.6462L8.50001 4.70686ZM11.2931 7.49999L10.2325 6.43933L4.73247 11.9393L5.79313 13L6.85379 14.0606L12.3538 8.56065L11.2931 7.49999ZM12 6.79249L13.0605 5.73171L10.2674 2.93921L9.20688 3.99999L8.14634 5.06076L10.9395 7.85326L12 6.79249ZM9.20688 3.99999L10.2675 5.06065L11.7675 3.56065L10.7069 2.49999L9.64622 1.43933L8.14622 2.93933L9.20688 3.99999ZM10.7069 2.49999L9.64634 3.56076L12.4395 6.35326L13.5 5.29249L14.5605 4.23171L11.7674 1.43921L10.7069 2.49999ZM13.5 5.29249L12.4393 4.23183L10.9393 5.73183L12 6.79249L13.0607 7.85315L14.5607 6.35315L13.5 5.29249Z" fill="#181D27" mask="url(#path-1-inside-1_81_3312)"/>
</svg>
