<svg width="16" height="16" viewBox="0 0 16 16" fill="none" xmlns="http://www.w3.org/2000/svg">
<mask id="path-1-inside-1_81_3322" fill="white">
<path d="M12.8538 12.146C12.9002 12.1925 12.9371 12.2476 12.9622 12.3083C12.9874 12.369 13.0003 12.4341 13.0003 12.4998C13.0003 12.5655 12.9874 12.6305 12.9622 12.6912C12.9371 12.7519 12.9002 12.8071 12.8538 12.8535C12.8073 12.9 12.7522 12.9368 12.6915 12.962C12.6308 12.9871 12.5657 13.0001 12.5 13.0001C12.4343 13.0001 12.3693 12.9871 12.3086 12.962C12.2479 12.9368 12.1927 12.9 12.1463 12.8535L8.00003 8.70666L3.85378 12.8535C3.75996 12.9474 3.63272 13.0001 3.50003 13.0001C3.36735 13.0001 3.2401 12.9474 3.14628 12.8535C3.05246 12.7597 2.99976 12.6325 2.99976 12.4998C2.99976 12.3671 3.05246 12.2399 3.14628 12.146L7.29316 7.99979L3.14628 3.85354C3.05246 3.75972 2.99976 3.63247 2.99976 3.49979C2.99976 3.36711 3.05246 3.23986 3.14628 3.14604C3.2401 3.05222 3.36735 2.99951 3.50003 2.99951C3.63272 2.99951 3.75996 3.05222 3.85378 3.14604L8.00003 7.29291L12.1463 3.14604C12.2401 3.05222 12.3674 2.99951 12.5 2.99951C12.6327 2.99951 12.76 3.05222 12.8538 3.14604C12.9476 3.23986 13.0003 3.36711 13.0003 3.49979C13.0003 3.63247 12.9476 3.75972 12.8538 3.85354L8.70691 7.99979L12.8538 12.146Z"/>
</mask>
<path d="M12.8538 12.146C12.9002 12.1925 12.9371 12.2476 12.9622 12.3083C12.9874 12.369 13.0003 12.4341 13.0003 12.4998C13.0003 12.5655 12.9874 12.6305 12.9622 12.6912C12.9371 12.7519 12.9002 12.8071 12.8538 12.8535C12.8073 12.9 12.7522 12.9368 12.6915 12.962C12.6308 12.9871 12.5657 13.0001 12.5 13.0001C12.4343 13.0001 12.3693 12.9871 12.3086 12.962C12.2479 12.9368 12.1927 12.9 12.1463 12.8535L8.00003 8.70666L3.85378 12.8535C3.75996 12.9474 3.63272 13.0001 3.50003 13.0001C3.36735 13.0001 3.2401 12.9474 3.14628 12.8535C3.05246 12.7597 2.99976 12.6325 2.99976 12.4998C2.99976 12.3671 3.05246 12.2399 3.14628 12.146L7.29316 7.99979L3.14628 3.85354C3.05246 3.75972 2.99976 3.63247 2.99976 3.49979C2.99976 3.36711 3.05246 3.23986 3.14628 3.14604C3.2401 3.05222 3.36735 2.99951 3.50003 2.99951C3.63272 2.99951 3.75996 3.05222 3.85378 3.14604L8.00003 7.29291L12.1463 3.14604C12.2401 3.05222 12.3674 2.99951 12.5 2.99951C12.6327 2.99951 12.76 3.05222 12.8538 3.14604C12.9476 3.23986 13.0003 3.36711 13.0003 3.49979C13.0003 3.63247 12.9476 3.75972 12.8538 3.85354L8.70691 7.99979L12.8538 12.146Z" fill="#1E293B"/>
<path d="M12.8538 12.146L13.9144 11.0854L13.9144 11.0853L12.8538 12.146ZM12.5 13.0001V14.5001V13.0001ZM12.1463 12.8535L11.0855 13.9141L11.0856 13.9142L12.1463 12.8535ZM8.00003 8.70666L9.06077 7.64608L8.00003 6.58518L6.93929 7.64608L8.00003 8.70666ZM3.85378 12.8535L4.91444 13.9142L4.91452 13.9141L3.85378 12.8535ZM3.14628 12.146L2.0857 11.0853L2.08562 11.0854L3.14628 12.146ZM7.29316 7.99979L8.35374 9.06053L9.41464 7.99979L8.35374 6.93905L7.29316 7.99979ZM3.14628 3.85354L2.08562 4.9142L2.0857 4.91428L3.14628 3.85354ZM3.50003 2.99951V1.49951V2.99951ZM3.85378 3.14604L4.91452 2.08546L4.91444 2.08538L3.85378 3.14604ZM8.00003 7.29291L6.93929 8.3535L8.00003 9.4144L9.06077 8.3535L8.00003 7.29291ZM12.1463 3.14604L11.0856 2.08538L11.0855 2.08546L12.1463 3.14604ZM12.8538 3.85354L13.9144 4.91428L13.9144 4.9142L12.8538 3.85354ZM8.70691 7.99979L7.64633 6.93905L6.58543 7.99979L7.64633 9.06053L8.70691 7.99979ZM12.8538 12.146L11.7931 13.2067C11.7003 13.1139 11.6266 13.0037 11.5764 12.8824L12.9622 12.3083L14.3481 11.7343C14.2475 11.4916 14.1002 11.2711 13.9144 11.0854L12.8538 12.146ZM12.9622 12.3083L11.5764 12.8824C11.5262 12.7611 11.5003 12.6311 11.5003 12.4998H13.0003H14.5003C14.5003 12.2371 14.4486 11.977 14.3481 11.7343L12.9622 12.3083ZM13.0003 12.4998H11.5003C11.5003 12.3685 11.5262 12.2385 11.5764 12.1172L12.9622 12.6912L14.3481 13.2653C14.4486 13.0226 14.5003 12.7625 14.5003 12.4998H13.0003ZM12.9622 12.6912L11.5764 12.1172C11.6266 11.9959 11.7003 11.8857 11.7931 11.7929L12.8538 12.8535L13.9144 13.9142C14.1002 13.7285 14.2475 13.5079 14.3481 13.2653L12.9622 12.6912ZM12.8538 12.8535L11.7931 11.7929C11.886 11.7 11.9962 11.6264 12.1175 11.5762L12.6915 12.962L13.2655 14.3478C13.5082 14.2473 13.7287 14.0999 13.9144 13.9142L12.8538 12.8535ZM12.6915 12.962L12.1175 11.5762C12.2387 11.5259 12.3687 11.5001 12.5 11.5001V13.0001V14.5001C12.7627 14.5001 13.0228 14.4483 13.2655 14.3478L12.6915 12.962ZM12.5 13.0001V11.5001C12.6313 11.5001 12.7613 11.5259 12.8826 11.5762L12.3086 12.962L11.7346 14.3478C11.9772 14.4483 12.2373 14.5001 12.5 14.5001V13.0001ZM12.3086 12.962L12.8826 11.5762C13.0039 11.6264 13.1141 11.7 13.2069 11.7929L12.1463 12.8535L11.0856 13.9142C11.2714 14.0999 11.4919 14.2473 11.7346 14.3478L12.3086 12.962ZM12.1463 12.8535L13.207 11.793L9.06077 7.64608L8.00003 8.70666L6.93929 9.76724L11.0855 13.9141L12.1463 12.8535ZM8.00003 8.70666L6.93929 7.64608L2.79304 11.793L3.85378 12.8535L4.91452 13.9141L9.06077 9.76724L8.00003 8.70666ZM3.85378 12.8535L2.79312 11.7929C2.98061 11.6054 3.23489 11.5001 3.50003 11.5001V13.0001V14.5001C4.03054 14.5001 4.53932 14.2893 4.91444 13.9142L3.85378 12.8535ZM3.50003 13.0001V11.5001C3.76518 11.5001 4.01946 11.6054 4.20694 11.7929L3.14628 12.8535L2.08562 13.9142C2.46075 14.2893 2.96953 14.5001 3.50003 14.5001V13.0001ZM3.14628 12.8535L4.20694 11.7929C4.39443 11.9804 4.49976 12.2346 4.49976 12.4998H2.99976H1.49976C1.49976 13.0303 1.7105 13.5391 2.08562 13.9142L3.14628 12.8535ZM2.99976 12.4998H4.49976C4.49976 12.7649 4.39443 13.0192 4.20694 13.2067L3.14628 12.146L2.08562 11.0854C1.7105 11.4605 1.49976 11.9693 1.49976 12.4998H2.99976ZM3.14628 12.146L4.20686 13.2068L8.35374 9.06053L7.29316 7.99979L6.23258 6.93905L2.0857 11.0853L3.14628 12.146ZM7.29316 7.99979L8.35374 6.93905L4.20686 2.7928L3.14628 3.85354L2.0857 4.91428L6.23258 9.06053L7.29316 7.99979ZM3.14628 3.85354L4.20694 2.79288C4.39443 2.98036 4.49976 3.23465 4.49976 3.49979H2.99976H1.49976C1.49976 4.0303 1.7105 4.53907 2.08562 4.9142L3.14628 3.85354ZM2.99976 3.49979H4.49976C4.49976 3.76493 4.39443 4.01922 4.20694 4.2067L3.14628 3.14604L2.08562 2.08538C1.7105 2.4605 1.49976 2.96928 1.49976 3.49979H2.99976ZM3.14628 3.14604L4.20694 4.2067C4.01946 4.39418 3.76518 4.49951 3.50003 4.49951V2.99951V1.49951C2.96953 1.49951 2.46075 1.71025 2.08562 2.08538L3.14628 3.14604ZM3.50003 2.99951V4.49951C3.23489 4.49951 2.98061 4.39418 2.79312 4.2067L3.85378 3.14604L4.91444 2.08538C4.53932 1.71025 4.03054 1.49951 3.50003 1.49951V2.99951ZM3.85378 3.14604L2.79304 4.20662L6.93929 8.3535L8.00003 7.29291L9.06077 6.23233L4.91452 2.08546L3.85378 3.14604ZM8.00003 7.29291L9.06077 8.3535L13.207 4.20662L12.1463 3.14604L11.0855 2.08546L6.93929 6.23233L8.00003 7.29291ZM12.1463 3.14604L13.2069 4.2067C13.0195 4.39418 12.7652 4.49951 12.5 4.49951V2.99951V1.49951C11.9695 1.49951 11.4607 1.71025 11.0856 2.08538L12.1463 3.14604ZM12.5 2.99951V4.49951C12.2349 4.49951 11.9806 4.39418 11.7931 4.2067L12.8538 3.14604L13.9144 2.08538C13.5393 1.71025 13.0305 1.49951 12.5 1.49951V2.99951ZM12.8538 3.14604L11.7931 4.2067C11.6056 4.01922 11.5003 3.76493 11.5003 3.49979H13.0003H14.5003C14.5003 2.96928 14.2896 2.4605 13.9144 2.08538L12.8538 3.14604ZM13.0003 3.49979H11.5003C11.5003 3.23465 11.6056 2.98036 11.7931 2.79288L12.8538 3.85354L13.9144 4.9142C14.2896 4.53908 14.5003 4.0303 14.5003 3.49979H13.0003ZM12.8538 3.85354L11.7932 2.7928L7.64633 6.93905L8.70691 7.99979L9.76749 9.06053L13.9144 4.91428L12.8538 3.85354ZM8.70691 7.99979L7.64633 9.06053L11.7932 13.2068L12.8538 12.146L13.9144 11.0853L9.76749 6.93905L8.70691 7.99979Z" fill="#EF4444" mask="url(#path-1-inside-1_81_3322)"/>
</svg>
